<?xml version="1.0" encoding="UTF-8"?>
<!DOCTYPE svg PUBLIC "-//W3C//DTD SVG 1.1//EN"
    "http://www.w3.org/Graphics/SVG/1.1/DTD/svg11.dtd">
<svg xmlns="http://www.w3.org/2000/svg" xmlns:xlink="http://www.w3.org/1999/xlink" version="1.1" width="400.00000000000006" height="36.67796344862351" font-size="1" viewBox="0 0 400 37"><g><g transform="matrix(65.57377049180323,0.0,0.0,65.57377049180323,199.99999999999986,68.8524590163934)"><g stroke="rgb(0,0,0)" stroke-opacity="1.0" fill="rgb(0,0,0)" fill-opacity="1.0" stroke-width="1.0e-2" font-size="1.0em"><path d="M 3.050000000000005,-0.9900590857598661 c -5.551115123125783e-18,-2.7614237491539663e-2 -2.238576250846033e-2,-4.999999999999999e-2 -4.999999999999999e-2 -5.0e-2c -2.7614237491539663e-2,3.860286588720804e-18 -4.999999999999999e-2,2.2385762508460326e-2 -5.0e-2 4.999999999999999e-2c 2.169458054315825e-18,2.7614237491539663e-2 2.2385762508460322e-2,4.999999999999999e-2 4.999999999999998e-2 5.0e-2c 2.7614237491539663e-2,-4.786295199108463e-19 4.999999999999999e-2,-2.238576250846032e-2 5.0e-2 -4.9999999999999975e-2Z" /></g></g><g transform="matrix(65.57377049180323,0.0,0.0,65.57377049180323,199.99999999999986,68.8524590163934)"><g stroke="rgb(0,0,0)" stroke-opacity="1.0" fill="rgb(0,0,0)" fill-opacity="1.0" stroke-width="1.0e-2" font-size="1.0em"><path d="M 2.950000000000005,-0.97151613757501 c -5.551115123125783e-18,-2.7614237491539663e-2 -2.238576250846033e-2,-4.999999999999999e-2 -4.999999999999999e-2 -5.0e-2c -2.7614237491539663e-2,3.860286588720804e-18 -4.999999999999999e-2,2.2385762508460326e-2 -5.0e-2 4.999999999999999e-2c 2.169458054315825e-18,2.7614237491539663e-2 2.2385762508460322e-2,4.999999999999999e-2 4.999999999999998e-2 5.0e-2c 2.7614237491539663e-2,-4.786295199108463e-19 4.999999999999999e-2,-2.238576250846032e-2 5.0e-2 -4.9999999999999975e-2Z" /></g></g><g transform="matrix(65.57377049180323,0.0,0.0,65.57377049180323,199.99999999999986,68.8524590163934)"><g stroke="rgb(0,0,0)" stroke-opacity="1.0" fill="rgb(0,0,0)" fill-opacity="1.0" stroke-width="1.0e-2" font-size="1.0em"><path d="M 2.850000000000005,-0.9444142054297443 c -5.551115123125783e-18,-2.7614237491539663e-2 -2.238576250846033e-2,-4.999999999999999e-2 -4.999999999999999e-2 -5.0e-2c -2.7614237491539663e-2,3.860286588720804e-18 -4.999999999999999e-2,2.2385762508460326e-2 -5.0e-2 4.999999999999999e-2c 2.169458054315825e-18,2.7614237491539663e-2 2.2385762508460322e-2,4.999999999999999e-2 4.999999999999998e-2 5.0e-2c 2.7614237491539663e-2,-4.786295199108463e-19 4.999999999999999e-2,-2.238576250846032e-2 5.0e-2 -4.9999999999999975e-2Z" /></g></g><g transform="matrix(65.57377049180323,0.0,0.0,65.57377049180323,199.99999999999986,68.8524590163934)"><g stroke="rgb(0,0,0)" stroke-opacity="1.0" fill="rgb(0,0,0)" fill-opacity="1.0" stroke-width="1.0e-2" font-size="1.0em"><path d="M 2.750000000000005,-0.9100548798188591 c -5.551115123125783e-18,-2.7614237491539663e-2 -2.238576250846033e-2,-4.999999999999999e-2 -4.999999999999999e-2 -5.0e-2c -2.7614237491539663e-2,3.860286588720804e-18 -4.999999999999999e-2,2.2385762508460326e-2 -5.0e-2 4.999999999999999e-2c 2.169458054315825e-18,2.7614237491539663e-2 2.2385762508460322e-2,4.999999999999999e-2 4.999999999999998e-2 5.0e-2c 2.7614237491539663e-2,-4.786295199108463e-19 4.999999999999999e-2,-2.238576250846032e-2 5.0e-2 -4.9999999999999975e-2Z" /></g></g><g transform="matrix(65.57377049180323,0.0,0.0,65.57377049180323,199.99999999999986,68.8524590163934)"><g stroke="rgb(0,0,0)" stroke-opacity="1.0" fill="rgb(0,0,0)" fill-opacity="1.0" stroke-width="1.0e-2" font-size="1.0em"><path d="M 2.650000000000005,-0.8700456698296676 c -5.551115123125783e-18,-2.7614237491539663e-2 -2.238576250846033e-2,-4.999999999999999e-2 -4.999999999999999e-2 -5.0e-2c -2.7614237491539663e-2,3.860286588720804e-18 -4.999999999999999e-2,2.2385762508460326e-2 -5.0e-2 4.999999999999999e-2c 2.169458054315825e-18,2.7614237491539663e-2 2.2385762508460322e-2,4.999999999999999e-2 4.999999999999998e-2 5.0e-2c 2.7614237491539663e-2,-4.786295199108463e-19 4.999999999999999e-2,-2.238576250846032e-2 5.0e-2 -4.9999999999999975e-2Z" /></g></g><g transform="matrix(65.57377049180323,0.0,0.0,65.57377049180323,199.99999999999986,68.8524590163934)"><g stroke="rgb(0,0,0)" stroke-opacity="1.0" fill="rgb(0,0,0)" fill-opacity="1.0" stroke-width="1.0e-2" font-size="1.0em"><path d="M 2.5500000000000047,-0.826197343597893 c -5.551115123125783e-18,-2.7614237491539663e-2 -2.238576250846033e-2,-4.999999999999999e-2 -4.999999999999999e-2 -5.0e-2c -2.7614237491539663e-2,3.860286588720804e-18 -4.999999999999999e-2,2.2385762508460326e-2 -5.0e-2 4.999999999999999e-2c 2.169458054315825e-18,2.7614237491539663e-2 2.2385762508460322e-2,4.999999999999999e-2 4.999999999999998e-2 5.0e-2c 2.7614237491539663e-2,-4.786295199108463e-19 4.999999999999999e-2,-2.238576250846032e-2 5.0e-2 -4.9999999999999975e-2Z" /></g></g><g transform="matrix(65.57377049180323,0.0,0.0,65.57377049180323,199.99999999999986,68.8524590163934)"><g stroke="rgb(0,0,0)" stroke-opacity="1.0" fill="rgb(0,0,0)" fill-opacity="1.0" stroke-width="1.0e-2" font-size="1.0em"><path d="M 2.4500000000000046,-0.7804174271142649 c -5.551115123125783e-18,-2.7614237491539663e-2 -2.238576250846033e-2,-4.999999999999999e-2 -4.999999999999999e-2 -5.0e-2c -2.7614237491539663e-2,3.860286588720804e-18 -4.999999999999999e-2,2.2385762508460326e-2 -5.0e-2 4.999999999999999e-2c 2.169458054315825e-18,2.7614237491539663e-2 2.2385762508460322e-2,4.999999999999999e-2 4.999999999999998e-2 5.0e-2c 2.7614237491539663e-2,-4.786295199108463e-19 4.999999999999999e-2,-2.238576250846032e-2 5.0e-2 -4.9999999999999975e-2Z" /></g></g><g transform="matrix(65.57377049180323,0.0,0.0,65.57377049180323,199.99999999999986,68.8524590163934)"><g stroke="rgb(0,0,0)" stroke-opacity="1.0" fill="rgb(0,0,0)" fill-opacity="1.0" stroke-width="1.0e-2" font-size="1.0em"><path d="M 2.3500000000000045,-0.7346096056562674 c -5.551115123125783e-18,-2.7614237491539663e-2 -2.238576250846033e-2,-4.999999999999999e-2 -4.999999999999999e-2 -5.0e-2c -2.7614237491539663e-2,3.860286588720804e-18 -4.999999999999999e-2,2.2385762508460326e-2 -5.0e-2 4.999999999999999e-2c 2.169458054315825e-18,2.7614237491539663e-2 2.2385762508460322e-2,4.999999999999999e-2 4.999999999999998e-2 5.0e-2c 2.7614237491539663e-2,-4.786295199108463e-19 4.999999999999999e-2,-2.238576250846032e-2 5.0e-2 -4.9999999999999975e-2Z" /></g></g><g transform="matrix(65.57377049180323,0.0,0.0,65.57377049180323,199.99999999999986,68.8524590163934)"><g stroke="rgb(0,0,0)" stroke-opacity="1.0" fill="rgb(0,0,0)" fill-opacity="1.0" stroke-width="1.0e-2" font-size="1.0em"><path d="M 2.2500000000000044,-0.6905866885609132 c -5.551115123125783e-18,-2.7614237491539663e-2 -2.238576250846033e-2,-4.999999999999999e-2 -4.999999999999999e-2 -5.0e-2c -2.7614237491539663e-2,3.860286588720804e-18 -4.999999999999999e-2,2.2385762508460326e-2 -5.0e-2 4.999999999999999e-2c 2.169458054315825e-18,2.7614237491539663e-2 2.2385762508460322e-2,4.999999999999999e-2 4.999999999999998e-2 5.0e-2c 2.7614237491539663e-2,-4.786295199108463e-19 4.999999999999999e-2,-2.238576250846032e-2 5.0e-2 -4.9999999999999975e-2Z" /></g></g><g transform="matrix(65.57377049180323,0.0,0.0,65.57377049180323,199.99999999999986,68.8524590163934)"><g stroke="rgb(0,0,0)" stroke-opacity="1.0" fill="rgb(0,0,0)" fill-opacity="1.0" stroke-width="1.0e-2" font-size="1.0em"><path d="M 2.1500000000000044,-0.6500019176316176 c -5.551115123125783e-18,-2.7614237491539663e-2 -2.238576250846033e-2,-4.999999999999999e-2 -4.999999999999999e-2 -5.0e-2c -2.7614237491539663e-2,3.860286588720804e-18 -4.999999999999999e-2,2.2385762508460326e-2 -5.0e-2 4.999999999999999e-2c 2.169458054315825e-18,2.7614237491539663e-2 2.2385762508460322e-2,4.999999999999999e-2 4.999999999999998e-2 5.0e-2c 2.7614237491539663e-2,-4.786295199108463e-19 4.999999999999999e-2,-2.238576250846032e-2 5.0e-2 -4.9999999999999975e-2Z" /></g></g><g transform="matrix(65.57377049180323,0.0,0.0,65.57377049180323,199.99999999999986,68.8524590163934)"><g stroke="rgb(0,0,0)" stroke-opacity="1.0" fill="rgb(0,0,0)" fill-opacity="1.0" stroke-width="1.0e-2" font-size="1.0em"><path d="M 2.0500000000000043,-0.6143002821164837 c -5.551115123125783e-18,-2.7614237491539663e-2 -2.238576250846033e-2,-4.999999999999999e-2 -4.999999999999999e-2 -5.0e-2c -2.7614237491539663e-2,3.860286588720804e-18 -4.999999999999999e-2,2.2385762508460326e-2 -5.0e-2 4.999999999999999e-2c 2.169458054315825e-18,2.7614237491539663e-2 2.2385762508460322e-2,4.999999999999999e-2 4.999999999999998e-2 5.0e-2c 2.7614237491539663e-2,-4.786295199108463e-19 4.999999999999999e-2,-2.238576250846032e-2 5.0e-2 -4.9999999999999975e-2Z" /></g></g><g transform="matrix(65.57377049180323,0.0,0.0,65.57377049180323,199.99999999999986,68.8524590163934)"><g stroke="rgb(0,0,0)" stroke-opacity="1.0" fill="rgb(0,0,0)" fill-opacity="1.0" stroke-width="1.0e-2" font-size="1.0em"><path d="M 1.9500000000000044,-0.5846886672113221 c -5.551115123125783e-18,-2.7614237491539663e-2 -2.238576250846033e-2,-4.999999999999999e-2 -4.999999999999999e-2 -5.0e-2c -2.7614237491539663e-2,3.860286588720804e-18 -4.999999999999999e-2,2.2385762508460326e-2 -5.0e-2 4.999999999999999e-2c 2.169458054315825e-18,2.7614237491539663e-2 2.2385762508460322e-2,4.999999999999999e-2 4.999999999999998e-2 5.0e-2c 2.7614237491539663e-2,-4.786295199108463e-19 4.999999999999999e-2,-2.238576250846032e-2 5.0e-2 -4.9999999999999975e-2Z" /></g></g><g transform="matrix(65.57377049180323,0.0,0.0,65.57377049180323,199.99999999999986,68.8524590163934)"><g stroke="rgb(0,0,0)" stroke-opacity="1.0" fill="rgb(0,0,0)" fill-opacity="1.0" stroke-width="1.0e-2" font-size="1.0em"><path d="M 1.8500000000000043,-0.5621214988334153 c -5.551115123125783e-18,-2.7614237491539663e-2 -2.238576250846033e-2,-4.999999999999999e-2 -4.999999999999999e-2 -5.0e-2c -2.7614237491539663e-2,3.860286588720804e-18 -4.999999999999999e-2,2.2385762508460326e-2 -5.0e-2 4.999999999999999e-2c 2.169458054315825e-18,2.7614237491539663e-2 2.2385762508460322e-2,4.999999999999999e-2 4.999999999999998e-2 5.0e-2c 2.7614237491539663e-2,-4.786295199108463e-19 4.999999999999999e-2,-2.238576250846032e-2 5.0e-2 -4.9999999999999975e-2Z" /></g></g><g transform="matrix(65.57377049180323,0.0,0.0,65.57377049180323,199.99999999999986,68.8524590163934)"><g stroke="rgb(0,0,0)" stroke-opacity="1.0" fill="rgb(0,0,0)" fill-opacity="1.0" stroke-width="1.0e-2" font-size="1.0em"><path d="M 1.7500000000000042,-0.5472972760642634 c -5.551115123125783e-18,-2.7614237491539663e-2 -2.238576250846033e-2,-4.999999999999999e-2 -4.999999999999999e-2 -5.0e-2c -2.7614237491539663e-2,3.860286588720804e-18 -4.999999999999999e-2,2.2385762508460326e-2 -5.0e-2 4.999999999999999e-2c 2.169458054315825e-18,2.7614237491539663e-2 2.2385762508460322e-2,4.999999999999999e-2 4.999999999999998e-2 5.0e-2c 2.7614237491539663e-2,-4.786295199108463e-19 4.999999999999999e-2,-2.238576250846032e-2 5.0e-2 -4.9999999999999975e-2Z" /></g></g><g transform="matrix(65.57377049180323,0.0,0.0,65.57377049180323,199.99999999999986,68.8524590163934)"><g stroke="rgb(0,0,0)" stroke-opacity="1.0" fill="rgb(0,0,0)" fill-opacity="1.0" stroke-width="1.0e-2" font-size="1.0em"><path d="M 1.6500000000000041,-0.5406610574084911 c -5.551115123125783e-18,-2.7614237491539663e-2 -2.238576250846033e-2,-4.999999999999999e-2 -4.999999999999999e-2 -5.0e-2c -2.7614237491539663e-2,3.860286588720804e-18 -4.999999999999999e-2,2.2385762508460326e-2 -5.0e-2 4.999999999999999e-2c 2.169458054315825e-18,2.7614237491539663e-2 2.2385762508460322e-2,4.999999999999999e-2 4.999999999999998e-2 5.0e-2c 2.7614237491539663e-2,-4.786295199108463e-19 4.999999999999999e-2,-2.238576250846032e-2 5.0e-2 -4.9999999999999975e-2Z" /></g></g><g transform="matrix(65.57377049180323,0.0,0.0,65.57377049180323,199.99999999999986,68.8524590163934)"><g stroke="rgb(0,0,0)" stroke-opacity="1.0" fill="rgb(0,0,0)" fill-opacity="1.0" stroke-width="1.0e-2" font-size="1.0em"><path d="M 1.550000000000004,-0.5424085045303603 c -5.551115123125783e-18,-2.7614237491539663e-2 -2.238576250846033e-2,-4.999999999999999e-2 -4.999999999999999e-2 -5.0e-2c -2.7614237491539663e-2,3.860286588720804e-18 -4.999999999999999e-2,2.2385762508460326e-2 -5.0e-2 4.999999999999999e-2c 2.169458054315825e-18,2.7614237491539663e-2 2.2385762508460322e-2,4.999999999999999e-2 4.999999999999998e-2 5.0e-2c 2.7614237491539663e-2,-4.786295199108463e-19 4.999999999999999e-2,-2.238576250846032e-2 5.0e-2 -4.9999999999999975e-2Z" /></g></g><g transform="matrix(65.57377049180323,0.0,0.0,65.57377049180323,199.99999999999986,68.8524590163934)"><g stroke="rgb(0,0,0)" stroke-opacity="1.0" fill="rgb(0,0,0)" fill-opacity="1.0" stroke-width="1.0e-2" font-size="1.0em"><path d="M 1.450000000000004,-0.5524883111032225 c -5.551115123125783e-18,-2.7614237491539663e-2 -2.238576250846033e-2,-4.999999999999999e-2 -4.999999999999999e-2 -5.0e-2c -2.7614237491539663e-2,3.860286588720804e-18 -4.999999999999999e-2,2.2385762508460326e-2 -5.0e-2 4.999999999999999e-2c 2.169458054315825e-18,2.7614237491539663e-2 2.2385762508460322e-2,4.999999999999999e-2 4.999999999999998e-2 5.0e-2c 2.7614237491539663e-2,-4.786295199108463e-19 4.999999999999999e-2,-2.238576250846032e-2 5.0e-2 -4.9999999999999975e-2Z" /></g></g><g transform="matrix(65.57377049180323,0.0,0.0,65.57377049180323,199.99999999999986,68.8524590163934)"><g stroke="rgb(0,0,0)" stroke-opacity="1.0" fill="rgb(0,0,0)" fill-opacity="1.0" stroke-width="1.0e-2" font-size="1.0em"><path d="M 1.3500000000000039,-0.5706015261571996 c -5.551115123125783e-18,-2.7614237491539663e-2 -2.238576250846033e-2,-4.999999999999999e-2 -4.999999999999999e-2 -5.0e-2c -2.7614237491539663e-2,3.860286588720804e-18 -4.999999999999999e-2,2.2385762508460326e-2 -5.0e-2 4.999999999999999e-2c 2.169458054315825e-18,2.7614237491539663e-2 2.2385762508460322e-2,4.999999999999999e-2 4.999999999999998e-2 5.0e-2c 2.7614237491539663e-2,-4.786295199108463e-19 4.999999999999999e-2,-2.238576250846032e-2 5.0e-2 -4.9999999999999975e-2Z" /></g></g><g transform="matrix(65.57377049180323,0.0,0.0,65.57377049180323,199.99999999999986,68.8524590163934)"><g stroke="rgb(0,0,0)" stroke-opacity="1.0" fill="rgb(0,0,0)" fill-opacity="1.0" stroke-width="1.0e-2" font-size="1.0em"><path d="M 1.2500000000000038,-0.5961981685894833 c -5.551115123125783e-18,-2.7614237491539663e-2 -2.238576250846033e-2,-4.999999999999999e-2 -4.999999999999999e-2 -5.0e-2c -2.7614237491539663e-2,3.860286588720804e-18 -4.999999999999999e-2,2.2385762508460326e-2 -5.0e-2 4.999999999999999e-2c 2.169458054315825e-18,2.7614237491539663e-2 2.2385762508460322e-2,4.999999999999999e-2 4.999999999999998e-2 5.0e-2c 2.7614237491539663e-2,-4.786295199108463e-19 4.999999999999999e-2,-2.238576250846032e-2 5.0e-2 -4.9999999999999975e-2Z" /></g></g><g transform="matrix(65.57377049180323,0.0,0.0,65.57377049180323,199.99999999999986,68.8524590163934)"><g stroke="rgb(0,0,0)" stroke-opacity="1.0" fill="rgb(0,0,0)" fill-opacity="1.0" stroke-width="1.0e-2" font-size="1.0em"><path d="M 1.1500000000000037,-0.6284733626561372 c -5.551115123125783e-18,-2.7614237491539663e-2 -2.238576250846033e-2,-4.999999999999999e-2 -4.999999999999999e-2 -5.0e-2c -2.7614237491539663e-2,3.860286588720804e-18 -4.999999999999999e-2,2.2385762508460326e-2 -5.0e-2 4.999999999999999e-2c 2.169458054315825e-18,2.7614237491539663e-2 2.2385762508460322e-2,4.999999999999999e-2 4.999999999999998e-2 5.0e-2c 2.7614237491539663e-2,-4.786295199108463e-19 4.999999999999999e-2,-2.238576250846032e-2 5.0e-2 -4.9999999999999975e-2Z" /></g></g><g transform="matrix(65.57377049180323,0.0,0.0,65.57377049180323,199.99999999999986,68.8524590163934)"><g stroke="rgb(0,0,0)" stroke-opacity="1.0" fill="rgb(0,0,0)" fill-opacity="1.0" stroke-width="1.0e-2" font-size="1.0em"><path d="M 1.0500000000000036,-0.6663667453928791 c -5.551115123125783e-18,-2.7614237491539663e-2 -2.238576250846033e-2,-4.999999999999999e-2 -4.999999999999999e-2 -5.0e-2c -2.7614237491539663e-2,3.860286588720804e-18 -4.999999999999999e-2,2.2385762508460326e-2 -5.0e-2 4.999999999999999e-2c 2.169458054315825e-18,2.7614237491539663e-2 2.2385762508460322e-2,4.999999999999999e-2 4.999999999999998e-2 5.0e-2c 2.7614237491539663e-2,-4.786295199108463e-19 4.999999999999999e-2,-2.238576250846032e-2 5.0e-2 -4.9999999999999975e-2Z" /></g></g><g transform="matrix(65.57377049180323,0.0,0.0,65.57377049180323,199.99999999999986,68.8524590163934)"><g stroke="rgb(0,0,0)" stroke-opacity="1.0" fill="rgb(0,0,0)" fill-opacity="1.0" stroke-width="1.0e-2" font-size="1.0em"><path d="M 0.9500000000000035,-0.7085698609495431 c -5.551115123125783e-18,-2.7614237491539663e-2 -2.238576250846033e-2,-4.999999999999999e-2 -4.999999999999999e-2 -5.0e-2c -2.7614237491539663e-2,3.860286588720804e-18 -4.999999999999999e-2,2.2385762508460326e-2 -5.0e-2 4.999999999999999e-2c 2.169458054315825e-18,2.7614237491539663e-2 2.2385762508460322e-2,4.999999999999999e-2 4.999999999999998e-2 5.0e-2c 2.7614237491539663e-2,-4.786295199108463e-19 4.999999999999999e-2,-2.238576250846032e-2 5.0e-2 -4.9999999999999975e-2Z" /></g></g><g transform="matrix(65.57377049180323,0.0,0.0,65.57377049180323,199.99999999999986,68.8524590163934)"><g stroke="rgb(0,0,0)" stroke-opacity="1.0" fill="rgb(0,0,0)" fill-opacity="1.0" stroke-width="1.0e-2" font-size="1.0em"><path d="M 0.8500000000000034,-0.7535464525892815 c -5.551115123125783e-18,-2.7614237491539663e-2 -2.238576250846033e-2,-4.999999999999999e-2 -4.999999999999999e-2 -5.0e-2c -2.7614237491539663e-2,3.860286588720804e-18 -4.999999999999999e-2,2.2385762508460326e-2 -5.0e-2 4.999999999999999e-2c 2.169458054315825e-18,2.7614237491539663e-2 2.2385762508460322e-2,4.999999999999999e-2 4.999999999999998e-2 5.0e-2c 2.7614237491539663e-2,-4.786295199108463e-19 4.999999999999999e-2,-2.238576250846032e-2 5.0e-2 -4.9999999999999975e-2Z" /></g></g><g transform="matrix(65.57377049180323,0.0,0.0,65.57377049180323,199.99999999999986,68.8524590163934)"><g stroke="rgb(0,0,0)" stroke-opacity="1.0" fill="rgb(0,0,0)" fill-opacity="1.0" stroke-width="1.0e-2" font-size="1.0em"><path d="M 0.7500000000000033,-0.7995698475762917 c -5.551115123125783e-18,-2.7614237491539663e-2 -2.238576250846033e-2,-4.999999999999999e-2 -4.999999999999999e-2 -5.0e-2c -2.7614237491539663e-2,3.860286588720804e-18 -4.999999999999999e-2,2.2385762508460326e-2 -5.0e-2 4.999999999999999e-2c 2.169458054315825e-18,2.7614237491539663e-2 2.2385762508460322e-2,4.999999999999999e-2 4.999999999999998e-2 5.0e-2c 2.7614237491539663e-2,-4.786295199108463e-19 4.999999999999999e-2,-2.238576250846032e-2 5.0e-2 -4.9999999999999975e-2Z" /></g></g><g transform="matrix(65.57377049180323,0.0,0.0,65.57377049180323,199.99999999999986,68.8524590163934)"><g stroke="rgb(0,0,0)" stroke-opacity="1.0" fill="rgb(0,0,0)" fill-opacity="1.0" stroke-width="1.0e-2" font-size="1.0em"><path d="M 0.6500000000000032,-0.8447799718383328 c -5.551115123125783e-18,-2.7614237491539663e-2 -2.238576250846033e-2,-4.999999999999999e-2 -4.999999999999999e-2 -5.0e-2c -2.7614237491539663e-2,3.860286588720804e-18 -4.999999999999999e-2,2.2385762508460326e-2 -5.0e-2 4.999999999999999e-2c 2.169458054315825e-18,2.7614237491539663e-2 2.2385762508460322e-2,4.999999999999999e-2 4.999999999999998e-2 5.0e-2c 2.7614237491539663e-2,-4.786295199108463e-19 4.999999999999999e-2,-2.238576250846032e-2 5.0e-2 -4.9999999999999975e-2Z" /></g></g><g transform="matrix(65.57377049180323,0.0,0.0,65.57377049180323,199.99999999999986,68.8524590163934)"><g stroke="rgb(0,0,0)" stroke-opacity="1.0" fill="rgb(0,0,0)" fill-opacity="1.0" stroke-width="1.0e-2" font-size="1.0em"><path d="M 0.5500000000000032,-0.8872600507176513 c -5.551115123125783e-18,-2.7614237491539663e-2 -2.238576250846033e-2,-4.999999999999999e-2 -4.999999999999999e-2 -5.0e-2c -2.7614237491539663e-2,3.860286588720804e-18 -4.999999999999999e-2,2.2385762508460326e-2 -5.0e-2 4.999999999999999e-2c 2.169458054315825e-18,2.7614237491539663e-2 2.2385762508460322e-2,4.999999999999999e-2 4.999999999999998e-2 5.0e-2c 2.7614237491539663e-2,-4.786295199108463e-19 4.999999999999999e-2,-2.238576250846032e-2 5.0e-2 -4.9999999999999975e-2Z" /></g></g><g transform="matrix(65.57377049180323,0.0,0.0,65.57377049180323,199.99999999999986,68.8524590163934)"><g stroke="rgb(0,0,0)" stroke-opacity="1.0" fill="rgb(0,0,0)" fill-opacity="1.0" stroke-width="1.0e-2" font-size="1.0em"><path d="M 0.450000000000003,-0.9251300429004266 c -5.551115123125783e-18,-2.7614237491539663e-2 -2.238576250846033e-2,-4.999999999999999e-2 -4.999999999999999e-2 -5.0e-2c -2.7614237491539663e-2,3.860286588720804e-18 -4.999999999999999e-2,2.2385762508460326e-2 -5.0e-2 4.999999999999999e-2c 2.169458054315825e-18,2.7614237491539663e-2 2.2385762508460322e-2,4.999999999999999e-2 4.999999999999998e-2 5.0e-2c 2.7614237491539663e-2,-4.786295199108463e-19 4.999999999999999e-2,-2.238576250846032e-2 5.0e-2 -4.9999999999999975e-2Z" /></g></g><g transform="matrix(65.57377049180323,0.0,0.0,65.57377049180323,199.99999999999986,68.8524590163934)"><g stroke="rgb(0,0,0)" stroke-opacity="1.0" fill="rgb(0,0,0)" fill-opacity="1.0" stroke-width="1.0e-2" font-size="1.0em"><path d="M 0.3500000000000029,-0.9566507680585946 c -5.551115123125783e-18,-2.7614237491539663e-2 -2.238576250846033e-2,-4.999999999999999e-2 -4.999999999999999e-2 -5.0e-2c -2.7614237491539663e-2,3.860286588720804e-18 -4.999999999999999e-2,2.2385762508460326e-2 -5.0e-2 4.999999999999999e-2c 2.169458054315825e-18,2.7614237491539663e-2 2.2385762508460322e-2,4.999999999999999e-2 4.999999999999998e-2 5.0e-2c 2.7614237491539663e-2,-4.786295199108463e-19 4.999999999999999e-2,-2.238576250846032e-2 5.0e-2 -4.9999999999999975e-2Z" /></g></g><g transform="matrix(65.57377049180323,0.0,0.0,65.57377049180323,199.99999999999986,68.8524590163934)"><g stroke="rgb(0,0,0)" stroke-opacity="1.0" fill="rgb(0,0,0)" fill-opacity="1.0" stroke-width="1.0e-2" font-size="1.0em"><path d="M 0.25000000000000283,-0.9803300732314016 c -5.551115123125783e-18,-2.7614237491539663e-2 -2.238576250846033e-2,-4.999999999999999e-2 -4.999999999999999e-2 -5.0e-2c -2.7614237491539663e-2,3.860286588720804e-18 -4.999999999999999e-2,2.2385762508460326e-2 -5.0e-2 4.999999999999999e-2c 2.169458054315825e-18,2.7614237491539663e-2 2.2385762508460322e-2,4.999999999999999e-2 4.999999999999998e-2 5.0e-2c 2.7614237491539663e-2,-4.786295199108463e-19 4.999999999999999e-2,-2.238576250846032e-2 5.0e-2 -4.9999999999999975e-2Z" /></g></g><g transform="matrix(65.57377049180323,0.0,0.0,65.57377049180323,199.99999999999986,68.8524590163934)"><g stroke="rgb(0,0,0)" stroke-opacity="1.0" fill="rgb(0,0,0)" fill-opacity="1.0" stroke-width="1.0e-2" font-size="1.0em"><path d="M 0.15000000000000274,-0.9950207820575627 c -5.551115123125783e-18,-2.7614237491539663e-2 -2.238576250846033e-2,-4.999999999999999e-2 -4.999999999999999e-2 -5.0e-2c -2.7614237491539663e-2,3.860286588720804e-18 -4.999999999999999e-2,2.2385762508460326e-2 -5.0e-2 4.999999999999999e-2c 2.169458054315825e-18,2.7614237491539663e-2 2.2385762508460322e-2,4.999999999999999e-2 4.999999999999998e-2 5.0e-2c 2.7614237491539663e-2,-4.786295199108463e-19 4.999999999999999e-2,-2.238576250846032e-2 5.0e-2 -4.9999999999999975e-2Z" /></g></g><g transform="matrix(65.57377049180323,0.0,0.0,65.57377049180323,199.99999999999986,68.8524590163934)"><g stroke="rgb(0,0,0)" stroke-opacity="1.0" fill="rgb(0,0,0)" fill-opacity="1.0" stroke-width="1.0e-2" font-size="1.0em"><path d="M 5.000000000000267e-2,-1.0 c -5.551115123125783e-18,-2.7614237491539663e-2 -2.238576250846033e-2,-4.999999999999999e-2 -4.999999999999999e-2 -5.0e-2c -2.7614237491539663e-2,3.860286588720804e-18 -4.999999999999999e-2,2.2385762508460326e-2 -5.0e-2 4.999999999999999e-2c 2.169458054315825e-18,2.7614237491539663e-2 2.2385762508460322e-2,4.999999999999999e-2 4.999999999999998e-2 5.0e-2c 2.7614237491539663e-2,-4.786295199108463e-19 4.999999999999999e-2,-2.238576250846032e-2 5.0e-2 -4.9999999999999975e-2Z" /></g></g><g transform="matrix(65.57377049180323,0.0,0.0,65.57377049180323,199.99999999999986,68.8524590163934)"><g stroke="rgb(0,0,0)" stroke-opacity="1.0" fill="rgb(0,0,0)" fill-opacity="1.0" stroke-width="1.0e-2" font-size="1.0em"><path d="M -4.999999999999742e-2,-0.9950207820575633 c -5.551115123125783e-18,-2.7614237491539663e-2 -2.238576250846033e-2,-4.999999999999999e-2 -4.999999999999999e-2 -5.0e-2c -2.7614237491539663e-2,3.860286588720804e-18 -4.999999999999999e-2,2.2385762508460326e-2 -5.0e-2 4.999999999999999e-2c 2.169458054315825e-18,2.7614237491539663e-2 2.2385762508460322e-2,4.999999999999999e-2 4.999999999999998e-2 5.0e-2c 2.7614237491539663e-2,-4.786295199108463e-19 4.999999999999999e-2,-2.238576250846032e-2 5.0e-2 -4.9999999999999975e-2Z" /></g></g><g transform="matrix(65.57377049180323,0.0,0.0,65.57377049180323,199.99999999999986,68.8524590163934)"><g stroke="rgb(0,0,0)" stroke-opacity="1.0" fill="rgb(0,0,0)" fill-opacity="1.0" stroke-width="1.0e-2" font-size="1.0em"><path d="M -0.14999999999999752,-0.9803300732314026 c -5.551115123125783e-18,-2.7614237491539663e-2 -2.238576250846033e-2,-4.999999999999999e-2 -4.999999999999999e-2 -5.0e-2c -2.7614237491539663e-2,3.860286588720804e-18 -4.999999999999999e-2,2.2385762508460326e-2 -5.0e-2 4.999999999999999e-2c 2.169458054315825e-18,2.7614237491539663e-2 2.2385762508460322e-2,4.999999999999999e-2 4.999999999999998e-2 5.0e-2c 2.7614237491539663e-2,-4.786295199108463e-19 4.999999999999999e-2,-2.238576250846032e-2 5.0e-2 -4.9999999999999975e-2Z" /></g></g><g transform="matrix(65.57377049180323,0.0,0.0,65.57377049180323,199.99999999999986,68.8524590163934)"><g stroke="rgb(0,0,0)" stroke-opacity="1.0" fill="rgb(0,0,0)" fill-opacity="1.0" stroke-width="1.0e-2" font-size="1.0em"><path d="M -0.2499999999999976,-0.9566507680585961 c -5.551115123125783e-18,-2.7614237491539663e-2 -2.238576250846033e-2,-4.999999999999999e-2 -4.999999999999999e-2 -5.0e-2c -2.7614237491539663e-2,3.860286588720804e-18 -4.999999999999999e-2,2.2385762508460326e-2 -5.0e-2 4.999999999999999e-2c 2.169458054315825e-18,2.7614237491539663e-2 2.2385762508460322e-2,4.999999999999999e-2 4.999999999999998e-2 5.0e-2c 2.7614237491539663e-2,-4.786295199108463e-19 4.999999999999999e-2,-2.238576250846032e-2 5.0e-2 -4.9999999999999975e-2Z" /></g></g><g transform="matrix(65.57377049180323,0.0,0.0,65.57377049180323,199.99999999999986,68.8524590163934)"><g stroke="rgb(0,0,0)" stroke-opacity="1.0" fill="rgb(0,0,0)" fill-opacity="1.0" stroke-width="1.0e-2" font-size="1.0em"><path d="M -0.3499999999999977,-0.9251300429004284 c -5.551115123125783e-18,-2.7614237491539663e-2 -2.238576250846033e-2,-4.999999999999999e-2 -4.999999999999999e-2 -5.0e-2c -2.7614237491539663e-2,3.860286588720804e-18 -4.999999999999999e-2,2.2385762508460326e-2 -5.0e-2 4.999999999999999e-2c 2.169458054315825e-18,2.7614237491539663e-2 2.2385762508460322e-2,4.999999999999999e-2 4.999999999999998e-2 5.0e-2c 2.7614237491539663e-2,-4.786295199108463e-19 4.999999999999999e-2,-2.238576250846032e-2 5.0e-2 -4.9999999999999975e-2Z" /></g></g><g transform="matrix(65.57377049180323,0.0,0.0,65.57377049180323,199.99999999999986,68.8524590163934)"><g stroke="rgb(0,0,0)" stroke-opacity="1.0" fill="rgb(0,0,0)" fill-opacity="1.0" stroke-width="1.0e-2" font-size="1.0em"><path d="M -0.4499999999999978,-0.8872600507176536 c -5.551115123125783e-18,-2.7614237491539663e-2 -2.238576250846033e-2,-4.999999999999999e-2 -4.999999999999999e-2 -5.0e-2c -2.7614237491539663e-2,3.860286588720804e-18 -4.999999999999999e-2,2.2385762508460326e-2 -5.0e-2 4.999999999999999e-2c 2.169458054315825e-18,2.7614237491539663e-2 2.2385762508460322e-2,4.999999999999999e-2 4.999999999999998e-2 5.0e-2c 2.7614237491539663e-2,-4.786295199108463e-19 4.999999999999999e-2,-2.238576250846032e-2 5.0e-2 -4.9999999999999975e-2Z" /></g></g><g transform="matrix(65.57377049180323,0.0,0.0,65.57377049180323,199.99999999999986,68.8524590163934)"><g stroke="rgb(0,0,0)" stroke-opacity="1.0" fill="rgb(0,0,0)" fill-opacity="1.0" stroke-width="1.0e-2" font-size="1.0em"><path d="M -0.5499999999999978,-0.8447799718383351 c -5.551115123125783e-18,-2.7614237491539663e-2 -2.238576250846033e-2,-4.999999999999999e-2 -4.999999999999999e-2 -5.0e-2c -2.7614237491539663e-2,3.860286588720804e-18 -4.999999999999999e-2,2.2385762508460326e-2 -5.0e-2 4.999999999999999e-2c 2.169458054315825e-18,2.7614237491539663e-2 2.2385762508460322e-2,4.999999999999999e-2 4.999999999999998e-2 5.0e-2c 2.7614237491539663e-2,-4.786295199108463e-19 4.999999999999999e-2,-2.238576250846032e-2 5.0e-2 -4.9999999999999975e-2Z" /></g></g><g transform="matrix(65.57377049180323,0.0,0.0,65.57377049180323,199.99999999999986,68.8524590163934)"><g stroke="rgb(0,0,0)" stroke-opacity="1.0" fill="rgb(0,0,0)" fill-opacity="1.0" stroke-width="1.0e-2" font-size="1.0em"><path d="M -0.6499999999999979,-0.7995698475762941 c -5.551115123125783e-18,-2.7614237491539663e-2 -2.238576250846033e-2,-4.999999999999999e-2 -4.999999999999999e-2 -5.0e-2c -2.7614237491539663e-2,3.860286588720804e-18 -4.999999999999999e-2,2.2385762508460326e-2 -5.0e-2 4.999999999999999e-2c 2.169458054315825e-18,2.7614237491539663e-2 2.2385762508460322e-2,4.999999999999999e-2 4.999999999999998e-2 5.0e-2c 2.7614237491539663e-2,-4.786295199108463e-19 4.999999999999999e-2,-2.238576250846032e-2 5.0e-2 -4.9999999999999975e-2Z" /></g></g><g transform="matrix(65.57377049180323,0.0,0.0,65.57377049180323,199.99999999999986,68.8524590163934)"><g stroke="rgb(0,0,0)" stroke-opacity="1.0" fill="rgb(0,0,0)" fill-opacity="1.0" stroke-width="1.0e-2" font-size="1.0em"><path d="M -0.749999999999998,-0.7535464525892841 c -5.551115123125783e-18,-2.7614237491539663e-2 -2.238576250846033e-2,-4.999999999999999e-2 -4.999999999999999e-2 -5.0e-2c -2.7614237491539663e-2,3.860286588720804e-18 -4.999999999999999e-2,2.2385762508460326e-2 -5.0e-2 4.999999999999999e-2c 2.169458054315825e-18,2.7614237491539663e-2 2.2385762508460322e-2,4.999999999999999e-2 4.999999999999998e-2 5.0e-2c 2.7614237491539663e-2,-4.786295199108463e-19 4.999999999999999e-2,-2.238576250846032e-2 5.0e-2 -4.9999999999999975e-2Z" /></g></g><g transform="matrix(65.57377049180323,0.0,0.0,65.57377049180323,199.99999999999986,68.8524590163934)"><g stroke="rgb(0,0,0)" stroke-opacity="1.0" fill="rgb(0,0,0)" fill-opacity="1.0" stroke-width="1.0e-2" font-size="1.0em"><path d="M -0.8499999999999981,-0.7085698609495454 c -5.551115123125783e-18,-2.7614237491539663e-2 -2.238576250846033e-2,-4.999999999999999e-2 -4.999999999999999e-2 -5.0e-2c -2.7614237491539663e-2,3.860286588720804e-18 -4.999999999999999e-2,2.2385762508460326e-2 -5.0e-2 4.999999999999999e-2c 2.169458054315825e-18,2.7614237491539663e-2 2.2385762508460322e-2,4.999999999999999e-2 4.999999999999998e-2 5.0e-2c 2.7614237491539663e-2,-4.786295199108463e-19 4.999999999999999e-2,-2.238576250846032e-2 5.0e-2 -4.9999999999999975e-2Z" /></g></g><g transform="matrix(65.57377049180323,0.0,0.0,65.57377049180323,199.99999999999986,68.8524590163934)"><g stroke="rgb(0,0,0)" stroke-opacity="1.0" fill="rgb(0,0,0)" fill-opacity="1.0" stroke-width="1.0e-2" font-size="1.0em"><path d="M -0.9499999999999982,-0.6663667453928813 c -5.551115123125783e-18,-2.7614237491539663e-2 -2.238576250846033e-2,-4.999999999999999e-2 -4.999999999999999e-2 -5.0e-2c -2.7614237491539663e-2,3.860286588720804e-18 -4.999999999999999e-2,2.2385762508460326e-2 -5.0e-2 4.999999999999999e-2c 2.169458054315825e-18,2.7614237491539663e-2 2.2385762508460322e-2,4.999999999999999e-2 4.999999999999998e-2 5.0e-2c 2.7614237491539663e-2,-4.786295199108463e-19 4.999999999999999e-2,-2.238576250846032e-2 5.0e-2 -4.9999999999999975e-2Z" /></g></g><g transform="matrix(65.57377049180323,0.0,0.0,65.57377049180323,199.99999999999986,68.8524590163934)"><g stroke="rgb(0,0,0)" stroke-opacity="1.0" fill="rgb(0,0,0)" fill-opacity="1.0" stroke-width="1.0e-2" font-size="1.0em"><path d="M -1.0499999999999983,-0.6284733626561391 c -5.551115123125783e-18,-2.7614237491539663e-2 -2.238576250846033e-2,-4.999999999999999e-2 -4.999999999999999e-2 -5.0e-2c -2.7614237491539663e-2,3.860286588720804e-18 -4.999999999999999e-2,2.2385762508460326e-2 -5.0e-2 4.999999999999999e-2c 2.169458054315825e-18,2.7614237491539663e-2 2.2385762508460322e-2,4.999999999999999e-2 4.999999999999998e-2 5.0e-2c 2.7614237491539663e-2,-4.786295199108463e-19 4.999999999999999e-2,-2.238576250846032e-2 5.0e-2 -4.9999999999999975e-2Z" /></g></g><g transform="matrix(65.57377049180323,0.0,0.0,65.57377049180323,199.99999999999986,68.8524590163934)"><g stroke="rgb(0,0,0)" stroke-opacity="1.0" fill="rgb(0,0,0)" fill-opacity="1.0" stroke-width="1.0e-2" font-size="1.0em"><path d="M -1.1499999999999984,-0.5961981685894848 c -5.551115123125783e-18,-2.7614237491539663e-2 -2.238576250846033e-2,-4.999999999999999e-2 -4.999999999999999e-2 -5.0e-2c -2.7614237491539663e-2,3.860286588720804e-18 -4.999999999999999e-2,2.2385762508460326e-2 -5.0e-2 4.999999999999999e-2c 2.169458054315825e-18,2.7614237491539663e-2 2.2385762508460322e-2,4.999999999999999e-2 4.999999999999998e-2 5.0e-2c 2.7614237491539663e-2,-4.786295199108463e-19 4.999999999999999e-2,-2.238576250846032e-2 5.0e-2 -4.9999999999999975e-2Z" /></g></g><g transform="matrix(65.57377049180323,0.0,0.0,65.57377049180323,199.99999999999986,68.8524590163934)"><g stroke="rgb(0,0,0)" stroke-opacity="1.0" fill="rgb(0,0,0)" fill-opacity="1.0" stroke-width="1.0e-2" font-size="1.0em"><path d="M -1.2499999999999984,-0.5706015261572007 c -5.551115123125783e-18,-2.7614237491539663e-2 -2.238576250846033e-2,-4.999999999999999e-2 -4.999999999999999e-2 -5.0e-2c -2.7614237491539663e-2,3.860286588720804e-18 -4.999999999999999e-2,2.2385762508460326e-2 -5.0e-2 4.999999999999999e-2c 2.169458054315825e-18,2.7614237491539663e-2 2.2385762508460322e-2,4.999999999999999e-2 4.999999999999998e-2 5.0e-2c 2.7614237491539663e-2,-4.786295199108463e-19 4.999999999999999e-2,-2.238576250846032e-2 5.0e-2 -4.9999999999999975e-2Z" /></g></g><g transform="matrix(65.57377049180323,0.0,0.0,65.57377049180323,199.99999999999986,68.8524590163934)"><g stroke="rgb(0,0,0)" stroke-opacity="1.0" fill="rgb(0,0,0)" fill-opacity="1.0" stroke-width="1.0e-2" font-size="1.0em"><path d="M -1.3499999999999985,-0.5524883111032232 c -5.551115123125783e-18,-2.7614237491539663e-2 -2.238576250846033e-2,-4.999999999999999e-2 -4.999999999999999e-2 -5.0e-2c -2.7614237491539663e-2,3.860286588720804e-18 -4.999999999999999e-2,2.2385762508460326e-2 -5.0e-2 4.999999999999999e-2c 2.169458054315825e-18,2.7614237491539663e-2 2.2385762508460322e-2,4.999999999999999e-2 4.999999999999998e-2 5.0e-2c 2.7614237491539663e-2,-4.786295199108463e-19 4.999999999999999e-2,-2.238576250846032e-2 5.0e-2 -4.9999999999999975e-2Z" /></g></g><g transform="matrix(65.57377049180323,0.0,0.0,65.57377049180323,199.99999999999986,68.8524590163934)"><g stroke="rgb(0,0,0)" stroke-opacity="1.0" fill="rgb(0,0,0)" fill-opacity="1.0" stroke-width="1.0e-2" font-size="1.0em"><path d="M -1.4499999999999986,-0.5424085045303606 c -5.551115123125783e-18,-2.7614237491539663e-2 -2.238576250846033e-2,-4.999999999999999e-2 -4.999999999999999e-2 -5.0e-2c -2.7614237491539663e-2,3.860286588720804e-18 -4.999999999999999e-2,2.2385762508460326e-2 -5.0e-2 4.999999999999999e-2c 2.169458054315825e-18,2.7614237491539663e-2 2.2385762508460322e-2,4.999999999999999e-2 4.999999999999998e-2 5.0e-2c 2.7614237491539663e-2,-4.786295199108463e-19 4.999999999999999e-2,-2.238576250846032e-2 5.0e-2 -4.9999999999999975e-2Z" /></g></g><g transform="matrix(65.57377049180323,0.0,0.0,65.57377049180323,199.99999999999986,68.8524590163934)"><g stroke="rgb(0,0,0)" stroke-opacity="1.0" fill="rgb(0,0,0)" fill-opacity="1.0" stroke-width="1.0e-2" font-size="1.0em"><path d="M -1.5499999999999987,-0.540661057408491 c -5.551115123125783e-18,-2.7614237491539663e-2 -2.238576250846033e-2,-4.999999999999999e-2 -4.999999999999999e-2 -5.0e-2c -2.7614237491539663e-2,3.860286588720804e-18 -4.999999999999999e-2,2.2385762508460326e-2 -5.0e-2 4.999999999999999e-2c 2.169458054315825e-18,2.7614237491539663e-2 2.2385762508460322e-2,4.999999999999999e-2 4.999999999999998e-2 5.0e-2c 2.7614237491539663e-2,-4.786295199108463e-19 4.999999999999999e-2,-2.238576250846032e-2 5.0e-2 -4.9999999999999975e-2Z" /></g></g><g transform="matrix(65.57377049180323,0.0,0.0,65.57377049180323,199.99999999999986,68.8524590163934)"><g stroke="rgb(0,0,0)" stroke-opacity="1.0" fill="rgb(0,0,0)" fill-opacity="1.0" stroke-width="1.0e-2" font-size="1.0em"><path d="M -1.6499999999999988,-0.5472972760642628 c -5.551115123125783e-18,-2.7614237491539663e-2 -2.238576250846033e-2,-4.999999999999999e-2 -4.999999999999999e-2 -5.0e-2c -2.7614237491539663e-2,3.860286588720804e-18 -4.999999999999999e-2,2.2385762508460326e-2 -5.0e-2 4.999999999999999e-2c 2.169458054315825e-18,2.7614237491539663e-2 2.2385762508460322e-2,4.999999999999999e-2 4.999999999999998e-2 5.0e-2c 2.7614237491539663e-2,-4.786295199108463e-19 4.999999999999999e-2,-2.238576250846032e-2 5.0e-2 -4.9999999999999975e-2Z" /></g></g><g transform="matrix(65.57377049180323,0.0,0.0,65.57377049180323,199.99999999999986,68.8524590163934)"><g stroke="rgb(0,0,0)" stroke-opacity="1.0" fill="rgb(0,0,0)" fill-opacity="1.0" stroke-width="1.0e-2" font-size="1.0em"><path d="M -1.749999999999999,-0.5621214988334143 c -5.551115123125783e-18,-2.7614237491539663e-2 -2.238576250846033e-2,-4.999999999999999e-2 -4.999999999999999e-2 -5.0e-2c -2.7614237491539663e-2,3.860286588720804e-18 -4.999999999999999e-2,2.2385762508460326e-2 -5.0e-2 4.999999999999999e-2c 2.169458054315825e-18,2.7614237491539663e-2 2.2385762508460322e-2,4.999999999999999e-2 4.999999999999998e-2 5.0e-2c 2.7614237491539663e-2,-4.786295199108463e-19 4.999999999999999e-2,-2.238576250846032e-2 5.0e-2 -4.9999999999999975e-2Z" /></g></g><g transform="matrix(65.57377049180323,0.0,0.0,65.57377049180323,199.99999999999986,68.8524590163934)"><g stroke="rgb(0,0,0)" stroke-opacity="1.0" fill="rgb(0,0,0)" fill-opacity="1.0" stroke-width="1.0e-2" font-size="1.0em"><path d="M -1.849999999999999,-0.5846886672113206 c -5.551115123125783e-18,-2.7614237491539663e-2 -2.238576250846033e-2,-4.999999999999999e-2 -4.999999999999999e-2 -5.0e-2c -2.7614237491539663e-2,3.860286588720804e-18 -4.999999999999999e-2,2.2385762508460326e-2 -5.0e-2 4.999999999999999e-2c 2.169458054315825e-18,2.7614237491539663e-2 2.2385762508460322e-2,4.999999999999999e-2 4.999999999999998e-2 5.0e-2c 2.7614237491539663e-2,-4.786295199108463e-19 4.999999999999999e-2,-2.238576250846032e-2 5.0e-2 -4.9999999999999975e-2Z" /></g></g><g transform="matrix(65.57377049180323,0.0,0.0,65.57377049180323,199.99999999999986,68.8524590163934)"><g stroke="rgb(0,0,0)" stroke-opacity="1.0" fill="rgb(0,0,0)" fill-opacity="1.0" stroke-width="1.0e-2" font-size="1.0em"><path d="M -1.949999999999999,-0.6143002821164819 c -5.551115123125783e-18,-2.7614237491539663e-2 -2.238576250846033e-2,-4.999999999999999e-2 -4.999999999999999e-2 -5.0e-2c -2.7614237491539663e-2,3.860286588720804e-18 -4.999999999999999e-2,2.2385762508460326e-2 -5.0e-2 4.999999999999999e-2c 2.169458054315825e-18,2.7614237491539663e-2 2.2385762508460322e-2,4.999999999999999e-2 4.999999999999998e-2 5.0e-2c 2.7614237491539663e-2,-4.786295199108463e-19 4.999999999999999e-2,-2.238576250846032e-2 5.0e-2 -4.9999999999999975e-2Z" /></g></g><g transform="matrix(65.57377049180323,0.0,0.0,65.57377049180323,199.99999999999986,68.8524590163934)"><g stroke="rgb(0,0,0)" stroke-opacity="1.0" fill="rgb(0,0,0)" fill-opacity="1.0" stroke-width="1.0e-2" font-size="1.0em"><path d="M -2.0499999999999994,-0.6500019176316156 c -5.551115123125783e-18,-2.7614237491539663e-2 -2.238576250846033e-2,-4.999999999999999e-2 -4.999999999999999e-2 -5.0e-2c -2.7614237491539663e-2,3.860286588720804e-18 -4.999999999999999e-2,2.2385762508460326e-2 -5.0e-2 4.999999999999999e-2c 2.169458054315825e-18,2.7614237491539663e-2 2.2385762508460322e-2,4.999999999999999e-2 4.999999999999998e-2 5.0e-2c 2.7614237491539663e-2,-4.786295199108463e-19 4.999999999999999e-2,-2.238576250846032e-2 5.0e-2 -4.9999999999999975e-2Z" /></g></g><g transform="matrix(65.57377049180323,0.0,0.0,65.57377049180323,199.99999999999986,68.8524590163934)"><g stroke="rgb(0,0,0)" stroke-opacity="1.0" fill="rgb(0,0,0)" fill-opacity="1.0" stroke-width="1.0e-2" font-size="1.0em"><path d="M -2.1499999999999995,-0.6905866885609109 c -5.551115123125783e-18,-2.7614237491539663e-2 -2.238576250846033e-2,-4.999999999999999e-2 -4.999999999999999e-2 -5.0e-2c -2.7614237491539663e-2,3.860286588720804e-18 -4.999999999999999e-2,2.2385762508460326e-2 -5.0e-2 4.999999999999999e-2c 2.169458054315825e-18,2.7614237491539663e-2 2.2385762508460322e-2,4.999999999999999e-2 4.999999999999998e-2 5.0e-2c 2.7614237491539663e-2,-4.786295199108463e-19 4.999999999999999e-2,-2.238576250846032e-2 5.0e-2 -4.9999999999999975e-2Z" /></g></g><g transform="matrix(65.57377049180323,0.0,0.0,65.57377049180323,199.99999999999986,68.8524590163934)"><g stroke="rgb(0,0,0)" stroke-opacity="1.0" fill="rgb(0,0,0)" fill-opacity="1.0" stroke-width="1.0e-2" font-size="1.0em"><path d="M -2.2499999999999996,-0.7346096056562651 c -5.551115123125783e-18,-2.7614237491539663e-2 -2.238576250846033e-2,-4.999999999999999e-2 -4.999999999999999e-2 -5.0e-2c -2.7614237491539663e-2,3.860286588720804e-18 -4.999999999999999e-2,2.2385762508460326e-2 -5.0e-2 4.999999999999999e-2c 2.169458054315825e-18,2.7614237491539663e-2 2.2385762508460322e-2,4.999999999999999e-2 4.999999999999998e-2 5.0e-2c 2.7614237491539663e-2,-4.786295199108463e-19 4.999999999999999e-2,-2.238576250846032e-2 5.0e-2 -4.9999999999999975e-2Z" /></g></g><g transform="matrix(65.57377049180323,0.0,0.0,65.57377049180323,199.99999999999986,68.8524590163934)"><g stroke="rgb(0,0,0)" stroke-opacity="1.0" fill="rgb(0,0,0)" fill-opacity="1.0" stroke-width="1.0e-2" font-size="1.0em"><path d="M -2.3499999999999996,-0.7804174271142624 c -5.551115123125783e-18,-2.7614237491539663e-2 -2.238576250846033e-2,-4.999999999999999e-2 -4.999999999999999e-2 -5.0e-2c -2.7614237491539663e-2,3.860286588720804e-18 -4.999999999999999e-2,2.2385762508460326e-2 -5.0e-2 4.999999999999999e-2c 2.169458054315825e-18,2.7614237491539663e-2 2.2385762508460322e-2,4.999999999999999e-2 4.999999999999998e-2 5.0e-2c 2.7614237491539663e-2,-4.786295199108463e-19 4.999999999999999e-2,-2.238576250846032e-2 5.0e-2 -4.9999999999999975e-2Z" /></g></g><g transform="matrix(65.57377049180323,0.0,0.0,65.57377049180323,199.99999999999986,68.8524590163934)"><g stroke="rgb(0,0,0)" stroke-opacity="1.0" fill="rgb(0,0,0)" fill-opacity="1.0" stroke-width="1.0e-2" font-size="1.0em"><path d="M -2.4499999999999997,-0.8261973435978905 c -5.551115123125783e-18,-2.7614237491539663e-2 -2.238576250846033e-2,-4.999999999999999e-2 -4.999999999999999e-2 -5.0e-2c -2.7614237491539663e-2,3.860286588720804e-18 -4.999999999999999e-2,2.2385762508460326e-2 -5.0e-2 4.999999999999999e-2c 2.169458054315825e-18,2.7614237491539663e-2 2.2385762508460322e-2,4.999999999999999e-2 4.999999999999998e-2 5.0e-2c 2.7614237491539663e-2,-4.786295199108463e-19 4.999999999999999e-2,-2.238576250846032e-2 5.0e-2 -4.9999999999999975e-2Z" /></g></g><g transform="matrix(65.57377049180323,0.0,0.0,65.57377049180323,199.99999999999986,68.8524590163934)"><g stroke="rgb(0,0,0)" stroke-opacity="1.0" fill="rgb(0,0,0)" fill-opacity="1.0" stroke-width="1.0e-2" font-size="1.0em"><path d="M -2.55,-0.8700456698296652 c -5.551115123125783e-18,-2.7614237491539663e-2 -2.238576250846033e-2,-4.999999999999999e-2 -4.999999999999999e-2 -5.0e-2c -2.7614237491539663e-2,3.860286588720804e-18 -4.999999999999999e-2,2.2385762508460326e-2 -5.0e-2 4.999999999999999e-2c 2.169458054315825e-18,2.7614237491539663e-2 2.2385762508460322e-2,4.999999999999999e-2 4.999999999999998e-2 5.0e-2c 2.7614237491539663e-2,-4.786295199108463e-19 4.999999999999999e-2,-2.238576250846032e-2 5.0e-2 -4.9999999999999975e-2Z" /></g></g><g transform="matrix(65.57377049180323,0.0,0.0,65.57377049180323,199.99999999999986,68.8524590163934)"><g stroke="rgb(0,0,0)" stroke-opacity="1.0" fill="rgb(0,0,0)" fill-opacity="1.0" stroke-width="1.0e-2" font-size="1.0em"><path d="M -2.65,-0.9100548798188571 c -5.551115123125783e-18,-2.7614237491539663e-2 -2.238576250846033e-2,-4.999999999999999e-2 -4.999999999999999e-2 -5.0e-2c -2.7614237491539663e-2,3.860286588720804e-18 -4.999999999999999e-2,2.2385762508460326e-2 -5.0e-2 4.999999999999999e-2c 2.169458054315825e-18,2.7614237491539663e-2 2.2385762508460322e-2,4.999999999999999e-2 4.999999999999998e-2 5.0e-2c 2.7614237491539663e-2,-4.786295199108463e-19 4.999999999999999e-2,-2.238576250846032e-2 5.0e-2 -4.9999999999999975e-2Z" /></g></g><g transform="matrix(65.57377049180323,0.0,0.0,65.57377049180323,199.99999999999986,68.8524590163934)"><g stroke="rgb(0,0,0)" stroke-opacity="1.0" fill="rgb(0,0,0)" fill-opacity="1.0" stroke-width="1.0e-2" font-size="1.0em"><path d="M -2.75,-0.9444142054297426 c -5.551115123125783e-18,-2.7614237491539663e-2 -2.238576250846033e-2,-4.999999999999999e-2 -4.999999999999999e-2 -5.0e-2c -2.7614237491539663e-2,3.860286588720804e-18 -4.999999999999999e-2,2.2385762508460326e-2 -5.0e-2 4.999999999999999e-2c 2.169458054315825e-18,2.7614237491539663e-2 2.2385762508460322e-2,4.999999999999999e-2 4.999999999999998e-2 5.0e-2c 2.7614237491539663e-2,-4.786295199108463e-19 4.999999999999999e-2,-2.238576250846032e-2 5.0e-2 -4.9999999999999975e-2Z" /></g></g><g transform="matrix(65.57377049180323,0.0,0.0,65.57377049180323,199.99999999999986,68.8524590163934)"><g stroke="rgb(0,0,0)" stroke-opacity="1.0" fill="rgb(0,0,0)" fill-opacity="1.0" stroke-width="1.0e-2" font-size="1.0em"><path d="M -2.85,-0.9715161375750087 c -5.551115123125783e-18,-2.7614237491539663e-2 -2.238576250846033e-2,-4.999999999999999e-2 -4.999999999999999e-2 -5.0e-2c -2.7614237491539663e-2,3.860286588720804e-18 -4.999999999999999e-2,2.2385762508460326e-2 -5.0e-2 4.999999999999999e-2c 2.169458054315825e-18,2.7614237491539663e-2 2.2385762508460322e-2,4.999999999999999e-2 4.999999999999998e-2 5.0e-2c 2.7614237491539663e-2,-4.786295199108463e-19 4.999999999999999e-2,-2.238576250846032e-2 5.0e-2 -4.9999999999999975e-2Z" /></g></g><g transform="matrix(65.57377049180323,0.0,0.0,65.57377049180323,199.99999999999986,68.8524590163934)"><g stroke="rgb(0,0,0)" stroke-opacity="1.0" fill="rgb(0,0,0)" fill-opacity="1.0" stroke-width="1.0e-2" font-size="1.0em"><path d="M -2.95,-0.9900590857598653 c -5.551115123125783e-18,-2.7614237491539663e-2 -2.238576250846033e-2,-4.999999999999999e-2 -4.999999999999999e-2 -5.0e-2c -2.7614237491539663e-2,3.860286588720804e-18 -4.999999999999999e-2,2.2385762508460326e-2 -5.0e-2 4.999999999999999e-2c 2.169458054315825e-18,2.7614237491539663e-2 2.2385762508460322e-2,4.999999999999999e-2 4.999999999999998e-2 5.0e-2c 2.7614237491539663e-2,-4.786295199108463e-19 4.999999999999999e-2,-2.238576250846032e-2 5.0e-2 -4.9999999999999975e-2Z" /></g></g></g></svg>